PathFileType	4	(X/Y/Z)
DataRate	CameraRate	NumFrames	NumMarkers	Units	OrigDataRate	OrigDataStartFrame	OrigNumFrames	
	120.0	120.0	4	39	mm	120.0	78	206
Frame#	Time	midhip	hip_r	hip_l	knee_r	knee_l	ankle_r	ankle_l	midasis	asis_r	asis_l	psis_r	psis_l	epicondLat_r	epicondLat_l	epicondMed_r	epicondMed_l	malleolusLat_r	malleolusLat_l	malleolusMedv_r	malleolusMedv_l	heel_r	heel_l	sternalnotch	xyphoidprocess	neck	subclavicle_r	subclavicle_l	toe_r	toe_l	thighwand_r	thighwand_l	upperleg1_r	upperleg1_l	upperleg2_r	upperleg2_l	shankwand_r	shankwand_l	lowerleg1_r	lowerleg1_l
	X1	Y1	Z1	X2	Y2	Z2	X3	Y3	Z3	X4	Y4	Z4	X5	Y5	Z5	X6	Y6	Z6	X7	Y7	Z7	X8	Y8	Z8	X9	Y9	Z9	X10	Y10	Z10	X11	Y11	Z11	X12	Y12	Z12	X13	Y13	Z13	X14	Y14	Z14	X15	Y15	Z15	X16	Y16	Z16	X17	Y17	Z17	X18	Y18	Z18	X19	Y19	Z19	X20	Y20	Z20	X21	Y21	Z21	X22	Y22	Z22	X23	Y23	Z23	X24	Y24	Z24	X25	Y25	Z25	X26	Y26	Z26	X27	Y27	Z27	X28	Y28	Z28	X29	Y29	Z29	X30	Y30	Z30	X31	Y31	Z31	X32	Y32	Z32	X33	Y33	Z33	X34	Y34	Z34	X35	Y35	Z35	X36	Y36	Z36	X37	Y37	Z37	X38	Y38	Z38	X39	Y39	Z39

	78	0.65000	1428.646	822.259	-274.009	1424.481	810.944	-194.474	1417.691	814.725	-346.403	1431.420	436.608	-160.081	1428.077	437.562	-387.825	1415.463	64.811	-126.014	1397.743	67.631	-422.982	1517.386	881.731	-269.918	1518.772	878.906	-152.374	1516.001	884.556	-387.462	1325.756	950.779	-233.540	1320.948	949.506	-287.946	1433.570	442.134	-100.375	1433.017	444.224	-447.249	1433.109	433.278	-216.193	1434.108	441.774	-324.027	1395.794	69.033	-89.145	1383.196	72.539	-462.076	1429.885	67.790	-156.427	1405.374	74.772	-394.885	1376.054	33.584	-157.438	1347.209	46.918	-412.060	1513.128	1321.191	-268.308	1555.503	1253.339	-272.843	1393.551	1381.093	-258.933	1519.687	1326.018	-216.163	1513.307	1323.129	-322.116	1508.282	40.798	-67.493	1500.932	43.790	-457.431	1588.926	574.929	-184.776	1464.898	582.047	-519.749	1521.867	630.823	-135.492	1405.810	627.769	-455.766	1509.964	543.408	-127.170	1412.890	539.839	-451.102	1382.808	151.403	-28.879	1493.783	188.631	-406.995	1390.782	157.178	-72.304	1452.740	188.492	-412.888
	79	0.65833	1428.588	822.258	-273.659	1424.426	810.945	-194.354	1417.566	814.623	-346.282	1431.370	436.610	-160.038	1428.036	437.608	-387.777	1415.472	64.854	-126.017	1397.698	67.616	-422.947	1517.302	881.674	-269.889	1518.742	878.928	-152.353	1515.861	884.419	-387.425	1325.573	950.777	-233.551	1320.892	949.468	-287.867	1433.542	442.124	-100.332	1432.983	444.286	-447.199	1432.663	433.443	-216.316	1434.528	442.880	-322.561	1395.816	69.070	-89.141	1383.155	72.525	-462.042	1429.703	67.772	-156.520	1405.241	74.867	-394.814	1376.026	33.580	-157.452	1346.903	47.160	-411.964	1512.825	1321.209	-268.260	1555.212	1253.366	-272.813	1393.199	1381.090	-259.039	1519.432	1326.056	-216.211	1512.952	1323.128	-321.983	1508.294	40.811	-67.491	1500.941	43.785	-457.426	1588.734	574.826	-184.945	1464.869	582.055	-519.722	1521.784	630.842	-135.474	1405.824	627.798	-455.751	1509.765	543.285	-127.241	1412.948	539.870	-450.380	1382.797	151.461	-28.872	1493.760	188.617	-406.988	1390.649	157.287	-72.480	1452.801	188.506	-412.940
	80	0.66667	1428.395	822.122	-273.256	1424.394	810.936	-194.229	1417.450	814.523	-346.155	1431.330	436.620	-159.993	1428.004	437.606	-387.764	1415.520	64.910	-126.009	1397.639	67.570	-422.901	1517.222	881.628	-269.857	1518.727	878.952	-152.326	1515.717	884.303	-387.388	1325.393	950.766	-233.540	1320.826	949.396	-287.810	1433.514	442.121	-100.286	1432.959	444.304	-447.182	1432.461	433.598	-216.585	1434.747	443.353	-321.896	1395.871	69.118	-89.127	1383.102	72.475	-461.999	1429.888	67.682	-156.446	1405.109	74.968	-394.727	1376.009	33.573	-157.467	1346.580	47.430	-411.865	1512.674	1321.268	-268.284	1555.114	1253.454	-272.782	1392.761	1381.165	-259.226	1519.271	1326.159	-216.368	1512.807	1323.147	-321.878	1508.341	40.801	-67.480	1500.945	43.783	-457.423	1588.544	574.790	-185.118	1464.821	582.042	-519.664	1521.655	630.808	-135.364	1405.759	627.764	-455.822	1509.684	543.223	-127.349	1412.999	539.733	-450.091	1382.803	151.509	-28.844	1493.757	188.613	-406.996	1390.769	157.292	-72.579	1452.836	188.556	-412.999
	81	0.67500	1428.202	821.972	-272.759	1424.387	810.917	-194.150	1417.397	814.460	-346.076	1431.309	436.633	-159.958	1427.972	437.559	-387.782	1415.594	64.957	-125.990	1397.588	67.512	-422.858	1517.170	881.617	-269.826	1518.711	878.975	-152.308	1515.630	884.260	-387.343	1325.210	950.767	-233.504	1320.759	949.297	-287.791	1433.494	442.128	-100.250	1432.938	444.273	-447.198	1432.271	433.677	-216.542	1434.359	443.403	-321.749	1395.946	69.158	-89.107	1383.056	72.411	-461.958	1430.229	67.581	-156.295	1404.931	75.048	-394.652	1376.003	33.562	-157.479	1346.443	47.586	-411.812	1512.594	1321.244	-268.298	1555.036	1253.428	-272.746	1392.539	1381.209	-259.335	1519.172	1326.162	-216.432	1512.747	1323.095	-321.843	1508.401	40.765	-67.459	1500.939	43.788	-457.425	1588.354	574.818	-185.286	1464.761	582.037	-519.566	1521.579	630.717	-135.227	1405.656	627.732	-455.888	1509.707	543.266	-127.349	1412.854	539.652	-450.063	1382.820	151.539	-28.809	1493.764	188.623	-407.018	1390.995	157.283	-72.625	1452.837	188.522	-413.130
